<mxfile host="app.diagrams.net" modified="2024-02-08T19:32:07.676Z" agent="Mozilla/5.0 (Macintosh; Intel Mac OS X 10.15; rv:122.0) Gecko/20100101 Firefox/122.0" version="23.0.2" etag="5MJNSBk3SRrjFhx9MWPt" type="github">
  <diagram name="Page-1" id="6iDUIBtv1Bnn7-ocJFeO">
    <mxGraphModel>
      <root>
        <mxCell id="0" />
        <mxCell id="1" parent="0" />
      </root>
    </mxGraphModel>
  </diagram>
</mxfile>
